# Blender v2.77 (sub 0) OBJ File: 'fence.blend'
# www.blender.org
mtllib fence.mtl
o Cube.001_Cube.002
v -0.103099 -1.000000 -0.884500
v -0.103099 -1.000000 -1.115500
v 0.103099 -1.000000 -1.115500
v 0.103099 -1.000000 -0.884500
v -0.103099 1.000000 -0.884500
v -0.103099 1.000000 -1.115500
v 0.103099 1.000000 -1.115500
v 0.103099 1.000000 -0.884500
v -0.103099 1.000571 -0.884500
v -0.103099 1.000571 -1.115500
v 0.103099 0.999501 -0.884500
v 0.103099 0.999501 -1.115500
v -0.103099 1.000571 -0.961500
v -0.103099 1.000571 -1.038500
v -0.023021 1.256349 -0.951513
v 0.024673 1.256349 -0.951513
v -0.025866 1.256349 -1.048213
v 0.022802 1.256349 -1.048213
v 0.103099 0.999501 -1.038500
v 0.103099 0.999501 -0.961500
v -0.034366 1.256349 -0.961500
v -0.034366 1.256349 -1.038500
v 0.034366 1.256349 -0.961500
v 0.034366 1.256349 -1.038500
vt 0.3924 0.1986
vt 0.3924 0.1599
vt 0.3537 0.1599
vt 0.3537 0.1986
vt 0.1973 0.9794
vt 0.0846 0.9791
vt 0.0846 0.9760
vt 0.0849 0.9697
vt 0.1976 0.9697
vt 0.1973 0.9756
vt 0.3920 0.0421
vt 0.3895 0.2814
vt 0.3558 0.2826
vt 0.3546 0.0421
vt 0.3618 0.3964
vt 0.3587 0.6377
vt 0.3267 0.6377
vt 0.3236 0.3964
vt 0.0006 0.9606
vt 0.0011 0.7180
vt 0.0386 0.7184
vt 0.0387 0.9594
vt 0.3589 0.3952
vt 0.3589 0.6344
vt 0.3276 0.6344
vt 0.3300 0.3939
vt 0.8343 0.6130
vt 0.8157 0.5309
vt 0.8929 0.5126
vt 0.8478 0.6228
vt 0.9278 0.6291
vt 0.7983 0.6247
vt 0.7977 0.6215
vt 0.8476 0.5200
vt 0.8775 0.5200
vt 0.9278 0.6233
vt 0.8152 0.5562
vt 0.9253 0.5592
vt 0.9259 0.5614
vt 0.8841 0.6313
vt 0.8581 0.6313
vt 0.8152 0.5601
vt 0.8111 0.5945
vt 0.8850 0.5947
vt 0.8850 0.5978
vt 0.8632 0.5983
vt 0.8377 0.5984
vt 0.8111 0.5983
vt 0.8848 0.5568
vt 0.8808 0.6268
vt 0.8716 0.6340
vt 0.8187 0.5526
vt 0.7779 0.5816
vt 0.6670 0.5816
vt 0.6856 0.5676
vt 0.7642 0.5676
vt 0.9009 0.5538
vt 0.8589 0.6229
vt 0.8507 0.6150
vt 0.8470 0.5579
vt 0.8646 0.5389
vt 0.8646 0.6185
vt 0.8341 0.6185
vt 0.8341 0.5389
vt 0.9072 0.5613
vt 0.8303 0.5613
vt 0.8146 0.5469
vt 0.9255 0.5469
vt 0.8824 0.6195
vt 0.8141 0.6195
vt 0.8141 0.5512
vt 0.8824 0.5512
vt 0.8774 0.5110
vt 0.9235 0.6270
vt 0.8417 0.6060
vt 0.8633 0.5191
vt 0.7685 0.4054
vt 0.7685 0.4922
vt 0.7347 0.4922
vt 0.7347 0.4054
vn 0.0000 1.0000 0.0000
vn -1.0000 -0.0000 -0.0000
vn 0.0000 -0.0000 -1.0000
vn 1.0000 -0.0000 0.0000
vn -0.0000 0.0000 1.0000
vn 0.9481 0.2916 -0.1265
vn 0.0011 0.2529 0.9675
vn 0.0011 0.2539 -0.9672
vn -0.9541 0.2845 -0.0935
vn -0.9484 0.2921 0.1237
vn -0.9657 0.2595 -0.0000
vn 0.9522 0.2866 0.1061
vn 0.9660 0.2585 0.0000
usemtl Material
s off
f 1/1/1 4/2/1 3/3/1 2/4/1
f 8/5/2 7/6/2 12/7/2 19/8/2 20/9/2 11/10/2
f 1/11/2 5/12/2 6/13/2 2/14/2
f 2/15/3 6/16/3 7/17/3 3/18/3
f 3/19/4 7/20/4 8/21/4 4/22/4
f 5/23/5 1/24/5 4/25/5 8/26/5
f 24/27/6 19/28/6 12/29/6 18/30/6
f 5/31/7 8/32/7 11/33/7 16/34/7 15/35/7 9/36/7
f 7/37/8 6/38/8 10/39/8 17/40/8 18/41/8 12/42/8
f 6/43/2 5/44/2 9/45/2 13/46/2 14/47/2 10/48/2
f 14/49/9 22/50/9 17/51/9 10/52/9
f 22/53/1 24/54/1 18/55/1 17/56/1
f 9/57/10 15/58/10 21/59/10 13/60/10
f 13/61/11 21/62/11 22/63/11 14/64/11
f 15/65/1 16/66/1 23/67/1 21/68/1
f 21/69/1 23/70/1 24/71/1 22/72/1
f 16/73/12 11/74/12 20/75/12 23/76/12
f 23/77/13 20/78/13 19/79/13 24/80/13
o Cube.002_Cube.004
v -0.047309 0.392854 0.945657
v -0.047309 0.607146 0.945657
v -0.047309 0.392854 -1.054343
v -0.047309 0.607146 -1.054343
v 0.047309 0.392854 0.945657
v 0.047309 0.607146 0.945657
v 0.047309 0.392854 -1.054343
v 0.047309 0.607146 -1.054343
vt 0.0404 0.9639
vt 0.0404 0.9999
vt 0.2839 0.9999
vt 0.2839 0.9639
vt 0.0425 0.9781
vt 0.0991 0.9770
vt 0.0999 0.9967
vt 0.0439 0.9957
vt 0.2846 0.9995
vt 0.0409 0.9995
vt 0.0409 0.9649
vt 0.2846 0.9649
vt 0.4703 0.3420
vt 0.9382 0.0001
vt 0.7196 0.6855
vt 0.4703 0.3444
vt 0.2852 0.9981
vt 0.2821 0.9854
vt 0.0374 0.9859
vt 0.0364 0.9999
vt 0.2813 0.9987
vt 0.0384 0.9992
vt 0.0423 0.9685
vt 0.2815 0.9685
vn 1.0000 0.0000 0.0000
vn 0.0000 0.0000 -1.0000
vn 0.0000 0.0000 1.0000
vn 0.0000 1.0000 0.0000
usemtl Material
s off
f 26/81/14 25/82/14 27/83/14 28/84/14
f 28/85/15 32/86/15 31/87/15 27/88/15
f 32/89/14 30/90/14 29/91/14 31/92/14
f 30/93/16 26/94/16 25/95/16 29/96/16
f 25/97/17 29/98/17 31/99/17 27/100/17
f 30/101/17 32/102/17 28/103/17 26/104/17
o Cube.003
v -0.047309 -0.407146 0.900000
v -0.047309 -0.192854 0.900000
v -0.047309 -0.407146 -1.100000
v -0.047309 -0.192854 -1.100000
v 0.047309 -0.407146 0.900000
v 0.047309 -0.192854 0.900000
v 0.047309 -0.407146 -1.100000
v 0.047309 -0.192854 -1.100000
vt 0.0404 0.9639
vt 0.0404 0.9999
vt 0.2839 0.9999
vt 0.2839 0.9639
vt 0.0425 0.9781
vt 0.0991 0.9770
vt 0.0999 0.9967
vt 0.0439 0.9957
vt 0.2846 0.9995
vt 0.0409 0.9995
vt 0.0409 0.9649
vt 0.2846 0.9649
vt 0.4703 0.3420
vt 0.9382 0.0001
vt 0.7196 0.6855
vt 0.4703 0.3444
vt 0.2852 0.9981
vt 0.2821 0.9854
vt 0.0374 0.9859
vt 0.0364 0.9999
vt 0.2813 0.9987
vt 0.0384 0.9992
vt 0.0423 0.9685
vt 0.2815 0.9685
vn 1.0000 0.0000 0.0000
vn 0.0000 0.0000 -1.0000
vn 0.0000 0.0000 1.0000
vn 0.0000 1.0000 0.0000
usemtl Material
s off
f 34/105/18 33/106/18 35/107/18 36/108/18
f 36/109/19 40/110/19 39/111/19 35/112/19
f 40/113/18 38/114/18 37/115/18 39/116/18
f 38/117/20 34/118/20 33/119/20 37/120/20
f 33/121/21 37/122/21 39/123/21 35/124/21
f 38/125/21 40/126/21 36/127/21 34/128/21
o Cube
v -0.103099 -1.000000 0.115500
v -0.103099 -1.000000 -0.115500
v 0.103099 -1.000000 -0.115500
v 0.103099 -1.000000 0.115500
v -0.103099 1.000000 0.115500
v -0.103099 1.000000 -0.115500
v 0.103099 1.000000 -0.115500
v 0.103099 1.000000 0.115500
v -0.103099 1.000519 0.115500
v -0.103099 1.000519 -0.115500
v 0.103099 0.999914 0.115500
v 0.103099 0.999914 -0.115500
v -0.103099 1.000519 0.038500
v -0.103099 1.000519 -0.038500
v -0.023021 1.256349 0.048487
v 0.024673 1.256349 0.048487
v -0.025866 1.256349 -0.048213
v 0.022802 1.256349 -0.048213
v 0.103099 0.999914 -0.038500
v 0.103099 0.999914 0.038500
v -0.034366 1.256349 0.038500
v -0.034366 1.256349 -0.038500
v 0.034366 1.256349 0.038500
v 0.034366 1.256349 -0.038500
vt 0.3924 0.1986
vt 0.3924 0.1599
vt 0.3537 0.1599
vt 0.3537 0.1986
vt 0.1973 0.9794
vt 0.0846 0.9791
vt 0.0846 0.9760
vt 0.0849 0.9697
vt 0.1976 0.9697
vt 0.1973 0.9756
vt 0.3920 0.0421
vt 0.3895 0.2814
vt 0.3558 0.2826
vt 0.3546 0.0421
vt 0.3618 0.3964
vt 0.3587 0.6377
vt 0.3267 0.6377
vt 0.3236 0.3964
vt 0.0006 0.9606
vt 0.0011 0.7180
vt 0.0386 0.7184
vt 0.0387 0.9594
vt 0.3589 0.3952
vt 0.3589 0.6344
vt 0.3276 0.6344
vt 0.3300 0.3939
vt 0.8343 0.6130
vt 0.8157 0.5309
vt 0.8929 0.5126
vt 0.8478 0.6228
vt 0.9278 0.6291
vt 0.7983 0.6247
vt 0.7977 0.6215
vt 0.8476 0.5200
vt 0.8775 0.5200
vt 0.9278 0.6233
vt 0.8152 0.5562
vt 0.9253 0.5592
vt 0.9259 0.5614
vt 0.8841 0.6313
vt 0.8581 0.6313
vt 0.8152 0.5601
vt 0.8111 0.5945
vt 0.8850 0.5947
vt 0.8850 0.5978
vt 0.8632 0.5983
vt 0.8377 0.5984
vt 0.8111 0.5983
vt 0.8848 0.5568
vt 0.8808 0.6268
vt 0.8716 0.6340
vt 0.8187 0.5526
vt 0.7779 0.5816
vt 0.6670 0.5816
vt 0.6856 0.5676
vt 0.7642 0.5676
vt 0.9009 0.5538
vt 0.8589 0.6229
vt 0.8507 0.6150
vt 0.8470 0.5579
vt 0.8646 0.5389
vt 0.8646 0.6185
vt 0.8341 0.6185
vt 0.8341 0.5389
vt 0.9072 0.5613
vt 0.8303 0.5613
vt 0.8146 0.5469
vt 0.9255 0.5469
vt 0.8824 0.6195
vt 0.8141 0.6195
vt 0.8141 0.5512
vt 0.8824 0.5512
vt 0.8774 0.5110
vt 0.9235 0.6270
vt 0.8417 0.6060
vt 0.8633 0.5191
vt 0.7685 0.4054
vt 0.7685 0.4922
vt 0.7347 0.4922
vt 0.7347 0.4054
vn 0.0000 1.0000 0.0000
vn -1.0000 0.0000 -0.0000
vn 0.0000 -0.0000 -1.0000
vn 1.0000 -0.0000 0.0000
vn -0.0000 0.0000 1.0000
vn 0.9480 0.2921 -0.1264
vn 0.0006 0.2528 0.9675
vn 0.0006 0.2538 -0.9673
vn -0.9541 0.2845 -0.0935
vn -0.9484 0.2920 0.1237
vn -0.9658 0.2595 -0.0000
vn 0.9520 0.2870 0.1061
vn 0.9659 0.2589 0.0000
usemtl Material
s off
f 41/129/22 44/130/22 43/131/22 42/132/22
f 48/133/23 47/134/23 52/135/23 59/136/23 60/137/23 51/138/23
f 41/139/23 45/140/23 46/141/23 42/142/23
f 42/143/24 46/144/24 47/145/24 43/146/24
f 43/147/25 47/148/25 48/149/25 44/150/25
f 45/151/26 41/152/26 44/153/26 48/154/26
f 64/155/27 59/156/27 52/157/27 58/158/27
f 45/159/28 48/160/28 51/161/28 56/162/28 55/163/28 49/164/28
f 47/165/29 46/166/29 50/167/29 57/168/29 58/169/29 52/170/29
f 46/171/23 45/172/23 49/173/23 53/174/23 54/175/23 50/176/23
f 54/177/30 62/178/30 57/179/30 50/180/30
f 62/181/22 64/182/22 58/183/22 57/184/22
f 49/185/31 55/186/31 61/187/31 53/188/31
f 53/189/32 61/190/32 62/191/32 54/192/32
f 55/193/22 56/194/22 63/195/22 61/196/22
f 61/197/22 63/198/22 64/199/22 62/200/22
f 56/201/33 51/202/33 60/203/33 63/204/33
f 63/205/34 60/206/34 59/207/34 64/208/34
