# Blender v2.77 (sub 0) OBJ File: 'fence.blend'
# www.blender.org
mtllib fence.mtl
o Cube.002_Cube.004
v -0.047309 0.392854 0.945657
v -0.047309 0.607146 0.945657
v -0.047309 0.392854 -1.054343
v -0.047309 0.607146 -1.054343
v 0.047309 0.392854 0.945657
v 0.047309 0.607146 0.945657
v 0.047309 0.392854 -1.054343
v 0.047309 0.607146 -1.054343
vt 0.0404 0.9639
vt 0.0404 0.9999
vt 0.2839 0.9999
vt 0.2839 0.9639
vt 0.0425 0.9781
vt 0.0991 0.9770
vt 0.0999 0.9967
vt 0.0439 0.9957
vt 0.2846 0.9995
vt 0.0409 0.9995
vt 0.0409 0.9649
vt 0.2846 0.9649
vt 0.4703 0.3420
vt 0.9382 0.0001
vt 0.7196 0.6855
vt 0.4703 0.3444
vt 0.2852 0.9981
vt 0.2821 0.9854
vt 0.0374 0.9859
vt 0.0364 0.9999
vt 0.2813 0.9987
vt 0.0384 0.9992
vt 0.0423 0.9685
vt 0.2815 0.9685
vn 1.0000 0.0000 0.0000
vn 0.0000 0.0000 -1.0000
vn 0.0000 0.0000 1.0000
vn 0.0000 1.0000 0.0000
usemtl None
s off
f 2/1/1 1/2/1 3/3/1 4/4/1
f 4/5/2 8/6/2 7/7/2 3/8/2
f 8/9/1 6/10/1 5/11/1 7/12/1
f 6/13/3 2/14/3 1/15/3 5/16/3
f 1/17/4 5/18/4 7/19/4 3/20/4
f 6/21/4 8/22/4 4/23/4 2/24/4
o Cube.003
v -0.047309 -0.407146 0.900000
v -0.047309 -0.192854 0.900000
v -0.047309 -0.407146 -1.100000
v -0.047309 -0.192854 -1.100000
v 0.047309 -0.407146 0.900000
v 0.047309 -0.192854 0.900000
v 0.047309 -0.407146 -1.100000
v 0.047309 -0.192854 -1.100000
vt 0.0404 0.9639
vt 0.0404 0.9999
vt 0.2839 0.9999
vt 0.2839 0.9639
vt 0.0425 0.9781
vt 0.0991 0.9770
vt 0.0999 0.9967
vt 0.0439 0.9957
vt 0.2846 0.9995
vt 0.0409 0.9995
vt 0.0409 0.9649
vt 0.2846 0.9649
vt 0.4703 0.3420
vt 0.9382 0.0001
vt 0.7196 0.6855
vt 0.4703 0.3444
vt 0.2852 0.9981
vt 0.2821 0.9854
vt 0.0374 0.9859
vt 0.0364 0.9999
vt 0.2813 0.9987
vt 0.0384 0.9992
vt 0.0423 0.9685
vt 0.2815 0.9685
vn 1.0000 0.0000 0.0000
vn 0.0000 0.0000 -1.0000
vn 0.0000 0.0000 1.0000
vn 0.0000 1.0000 0.0000
usemtl None
s off
f 10/25/5 9/26/5 11/27/5 12/28/5
f 12/29/6 16/30/6 15/31/6 11/32/6
f 16/33/5 14/34/5 13/35/5 15/36/5
f 14/37/7 10/38/7 9/39/7 13/40/7
f 9/41/8 13/42/8 15/43/8 11/44/8
f 14/45/8 16/46/8 12/47/8 10/48/8
o Cube.001
v 0.103099 -1.000000 -1.115500
v 0.103099 -1.000000 -0.884500
v -0.103099 -1.000000 -0.884500
v -0.103099 -1.000000 -1.115500
v 0.103099 1.000000 -1.115500
v 0.103099 1.000000 -0.884500
v -0.103099 1.000000 -0.884500
v -0.103099 1.000000 -1.115500
v 0.103099 1.021576 -1.115500
v 0.103099 1.021576 -0.884500
v -0.103099 1.021576 -1.115500
v -0.103099 1.021576 -0.884500
v 0.103099 1.021576 -1.038500
v 0.103099 1.021576 -0.961500
v 0.023021 1.256349 -1.048487
v -0.024673 1.256349 -1.048487
v 0.025866 1.256349 -0.951787
v -0.022802 1.256349 -0.951787
v -0.103099 1.021576 -0.961500
v -0.103099 1.021576 -1.038500
v 0.034366 1.256349 -1.038500
v 0.034366 1.256349 -0.961500
v -0.034366 1.256349 -1.038500
v -0.034366 1.256349 -0.961500
vn 0.0000 -1.0000 -0.0000
vn -1.0000 -0.0000 -0.0000
vn 1.0000 0.0000 0.0000
vn -0.0000 -0.0000 1.0000
vn 0.0000 -0.0000 -1.0000
vn -0.9403 0.3164 0.1254
vn 0.0000 0.2410 -0.9705
vn -0.0000 0.2421 0.9703
vn 0.9470 0.3077 0.0928
vn 0.0000 1.0000 0.0000
vn 0.9409 0.3157 -0.1227
vn 0.9597 0.2810 0.0000
vn -0.9445 0.3110 -0.1053
vn -0.9597 0.2810 -0.0000
usemtl Material
s off
f 17//9 18//9 19//9 20//9
f 24//10 23//10 28//10 35//10 36//10 27//10
f 17//11 21//11 22//11 18//11
f 18//12 22//12 23//12 19//12
f 19//10 23//10 24//10 20//10
f 21//13 17//13 20//13 24//13
f 40//14 35//14 28//14 34//14
f 21//15 24//15 27//15 32//15 31//15 25//15
f 23//16 22//16 26//16 33//16 34//16 28//16
f 22//11 21//11 25//11 29//11 30//11 26//11
f 30//17 38//17 33//17 26//17
f 38//18 40//18 34//18 33//18
f 25//19 31//19 37//19 29//19
f 29//20 37//20 38//20 30//20
f 31//18 32//18 39//18 37//18
f 37//18 39//18 40//18 38//18
f 32//21 27//21 36//21 39//21
f 39//22 36//22 35//22 40//22
o Cube
v 0.103099 -1.000000 -0.115500
v 0.103099 -1.000000 0.115500
v -0.103099 -1.000000 0.115500
v -0.103099 -1.000000 -0.115500
v 0.103099 1.000000 -0.115500
v 0.103099 1.000000 0.115500
v -0.103099 1.000000 0.115500
v -0.103099 1.000000 -0.115500
v 0.103099 1.021576 -0.115500
v 0.103099 1.021576 0.115500
v -0.103099 1.021576 -0.115500
v -0.103099 1.021576 0.115500
v 0.103099 1.021576 -0.038500
v 0.103099 1.021576 0.038500
v 0.023021 1.256349 -0.048487
v -0.024673 1.256349 -0.048487
v 0.025866 1.256349 0.048213
v -0.022802 1.256349 0.048213
v -0.103099 1.021576 0.038500
v -0.103099 1.021576 -0.038500
v 0.034366 1.256349 -0.038500
v 0.034366 1.256349 0.038500
v -0.034366 1.256349 -0.038500
v -0.034366 1.256349 0.038500
vt 0.3924 0.1986
vt 0.3924 0.1599
vt 0.3537 0.1599
vt 0.3537 0.1986
vt 0.1973 0.9794
vt 0.0846 0.9791
vt 0.0846 0.9760
vt 0.0849 0.9697
vt 0.1976 0.9697
vt 0.1973 0.9756
vt 0.3920 0.0421
vt 0.3895 0.2814
vt 0.3558 0.2826
vt 0.3546 0.0421
vt 0.3618 0.3964
vt 0.3587 0.6377
vt 0.3267 0.6377
vt 0.3236 0.3964
vt 0.0006 0.9606
vt 0.0011 0.7180
vt 0.0386 0.7184
vt 0.0387 0.9594
vt 0.3589 0.3952
vt 0.3589 0.6344
vt 0.3276 0.6344
vt 0.3300 0.3939
vt 0.8266 0.6896
vt 0.7304 0.7571
vt 0.6658 0.6670
vt 0.8323 0.6670
vt 0.6651 0.8860
vt 0.3351 0.8816
vt 0.3336 0.8784
vt 0.4607 0.7770
vt 0.5370 0.7770
vt 0.6652 0.8802
vt 0.3337 0.6670
vt 0.6637 0.6713
vt 0.6652 0.6745
vt 0.5401 0.7764
vt 0.4622 0.7764
vt 0.3336 0.6727
vt 0.3336 0.8911
vt 0.6595 0.8912
vt 0.6595 0.8943
vt 0.5634 0.8949
vt 0.4508 0.8949
vt 0.3336 0.8949
vt 0.7560 0.2475
vt 0.6865 0.3423
vt 0.6670 0.3440
vt 0.6670 0.1814
vt 0.7779 0.5816
vt 0.6670 0.5816
vt 0.6856 0.5676
vt 0.7642 0.5676
vt 0.8329 0.0905
vt 0.6670 0.0905
vt 0.6721 0.0678
vt 0.7684 0.0003
vt 0.7846 0.4555
vt 0.6670 0.4555
vt 0.6670 0.3446
vt 0.7846 0.3446
vt 0.7584 0.7721
vt 0.6815 0.7721
vt 0.6658 0.7577
vt 0.7767 0.7577
vt 0.8675 0.2923
vt 0.7566 0.2923
vt 0.7566 0.1814
vt 0.8675 0.1814
vt 0.8309 0.1808
vt 0.6670 0.1808
vt 0.7323 0.0911
vt 0.8278 0.1597
vt 0.7846 0.5670
vt 0.6670 0.5670
vt 0.6670 0.4561
vt 0.7846 0.4561
vn 0.0000 1.0000 0.0000
vn -1.0000 -0.0000 -0.0000
vn 1.0000 0.0000 0.0000
vn -0.0000 -0.0000 1.0000
vn 0.0000 0.0000 -1.0000
vn -0.9403 0.3164 0.1254
vn 0.0000 0.2410 -0.9705
vn -0.0000 0.2421 0.9703
vn 0.9470 0.3077 0.0928
vn 0.9409 0.3157 -0.1227
vn 0.9597 0.2810 0.0000
vn -0.9445 0.3110 -0.1053
vn -0.9597 0.2810 -0.0000
usemtl Material_fireworks.png
s off
f 41/49/23 44/50/23 43/51/23 42/52/23
f 48/53/24 47/54/24 52/55/24 59/56/24 60/57/24 51/58/24
f 41/59/25 45/60/25 46/61/25 42/62/25
f 42/63/26 46/64/26 47/65/26 43/66/26
f 43/67/24 47/68/24 48/69/24 44/70/24
f 45/71/27 41/72/27 44/73/27 48/74/27
f 64/75/28 59/76/28 52/77/28 58/78/28
f 45/79/29 48/80/29 51/81/29 56/82/29 55/83/29 49/84/29
f 47/85/30 46/86/30 50/87/30 57/88/30 58/89/30 52/90/30
f 46/91/25 45/92/25 49/93/25 53/94/25 54/95/25 50/96/25
f 54/97/31 62/98/31 57/99/31 50/100/31
f 62/101/23 64/102/23 58/103/23 57/104/23
f 49/105/32 55/106/32 61/107/32 53/108/32
f 53/109/33 61/110/33 62/111/33 54/112/33
f 55/113/23 56/114/23 63/115/23 61/116/23
f 61/117/23 63/118/23 64/119/23 62/120/23
f 56/121/34 51/122/34 60/123/34 63/124/34
f 63/125/35 60/126/35 59/127/35 64/128/35
