# Blender v2.77 (sub 0) OBJ File: 'firework.blend'
# www.blender.org
mtllib firework.mtl
o Circle.001_Circle.003
v 0.000000 1.921645 0.000000
v 0.000000 1.921645 -0.977967
v -0.190792 1.921645 -0.959176
v -0.374252 1.921645 -0.903524
v -0.543330 1.921645 -0.813150
v -0.691527 1.921645 -0.691527
v -0.813150 1.921645 -0.543329
v -0.903524 1.921645 -0.374252
v -0.959176 1.921645 -0.190792
v -0.977967 1.921645 -0.000000
v -0.959176 1.921645 0.190792
v -0.903524 1.921645 0.374252
v -0.813150 1.921645 0.543329
v -0.691527 1.921645 0.691527
v -0.543329 1.921645 0.813150
v -0.374252 1.921645 0.903524
v -0.190792 1.921645 0.959176
v 0.000000 1.921645 0.977967
v 0.190792 1.921645 0.959176
v 0.374252 1.921645 0.903524
v 0.543330 1.921645 0.813150
v 0.691528 1.921645 0.691527
v 0.813151 1.921645 0.543329
v 0.903524 1.921645 0.374251
v 0.959176 1.921645 0.190791
v 0.977967 1.921645 -0.000001
v 0.959176 1.921645 -0.190793
v 0.903524 1.921645 -0.374253
v 0.813149 1.921645 -0.543331
v 0.691526 1.921645 -0.691528
v 0.543328 1.921645 -0.813151
v 0.374251 1.921645 -0.903525
v 0.190790 1.921645 -0.959176
vt 0.4756 0.4580
vt 0.5175 0.5961
vt 0.4897 0.6016
vt 0.4614 0.6016
vt 0.4337 0.5961
vt 0.4076 0.5853
vt 0.3840 0.5696
vt 0.3640 0.5496
vt 0.3483 0.5260
vt 0.3375 0.4999
vt 0.3320 0.4722
vt 0.3320 0.4439
vt 0.3375 0.4161
vt 0.3483 0.3900
vt 0.3640 0.3665
vt 0.3840 0.3465
vt 0.4076 0.3307
vt 0.4337 0.3199
vt 0.4614 0.3144
vt 0.4897 0.3144
vt 0.5175 0.3199
vt 0.5436 0.3307
vt 0.5671 0.3465
vt 0.5871 0.3665
vt 0.6029 0.3900
vt 0.6137 0.4161
vt 0.6192 0.4439
vt 0.6192 0.4722
vt 0.6137 0.4999
vt 0.6029 0.5260
vt 0.5871 0.5496
vt 0.5671 0.5696
vt 0.5436 0.5853
vn 0.0000 1.0000 0.0000
usemtl None
s off
f 1/1/1 2/2/1 3/3/1
f 1/1/1 3/3/1 4/4/1
f 1/1/1 4/4/1 5/5/1
f 1/1/1 5/5/1 6/6/1
f 1/1/1 6/6/1 7/7/1
f 1/1/1 7/7/1 8/8/1
f 1/1/1 8/8/1 9/9/1
f 1/1/1 9/9/1 10/10/1
f 1/1/1 10/10/1 11/11/1
f 1/1/1 11/11/1 12/12/1
f 1/1/1 12/12/1 13/13/1
f 1/1/1 13/13/1 14/14/1
f 1/1/1 14/14/1 15/15/1
f 1/1/1 15/15/1 16/16/1
f 1/1/1 16/16/1 17/17/1
f 1/1/1 17/17/1 18/18/1
f 1/1/1 18/18/1 19/19/1
f 1/1/1 19/19/1 20/20/1
f 1/1/1 20/20/1 21/21/1
f 1/1/1 21/21/1 22/22/1
f 1/1/1 22/22/1 23/23/1
f 1/1/1 23/23/1 24/24/1
f 1/1/1 24/24/1 25/25/1
f 1/1/1 25/25/1 26/26/1
f 1/1/1 26/26/1 27/27/1
f 1/1/1 27/27/1 28/28/1
f 1/1/1 28/28/1 29/29/1
f 1/1/1 29/29/1 30/30/1
f 1/1/1 30/30/1 31/31/1
f 1/1/1 31/31/1 32/32/1
f 1/1/1 32/32/1 33/33/1
f 1/1/1 33/33/1 2/2/1
o Circle_Circle.002
v 0.000000 -2.157068 0.000000
v 0.000000 -2.157068 -0.708718
v -0.138264 -2.157068 -0.695100
v -0.271214 -2.157068 -0.654770
v -0.393742 -2.157068 -0.589277
v -0.501139 -2.157068 -0.501139
v -0.589277 -2.157068 -0.393742
v -0.654770 -2.157068 -0.271214
v -0.695100 -2.157068 -0.138264
v -0.708718 -2.157068 -0.000000
v -0.695100 -2.157068 0.138264
v -0.654770 -2.157068 0.271214
v -0.589277 -2.157068 0.393742
v -0.501139 -2.157068 0.501139
v -0.393742 -2.157068 0.589277
v -0.271214 -2.157068 0.654770
v -0.138264 -2.157068 0.695100
v 0.000000 -2.157068 0.708718
v 0.138264 -2.157068 0.695100
v 0.271215 -2.157068 0.654770
v 0.393743 -2.157068 0.589277
v 0.501139 -2.157068 0.501139
v 0.589277 -2.157068 0.393742
v 0.654770 -2.157068 0.271214
v 0.695100 -2.157068 0.138263
v 0.708718 -2.157068 -0.000001
v 0.695100 -2.157068 -0.138265
v 0.654769 -2.157068 -0.271215
v 0.589277 -2.157068 -0.393743
v 0.501138 -2.157068 -0.501140
v 0.393742 -2.157068 -0.589278
v 0.271214 -2.157068 -0.654770
v 0.138263 -2.157068 -0.695100
vt 0.4756 0.4580
vt 0.5175 0.5961
vt 0.4897 0.6016
vt 0.4614 0.6016
vt 0.4337 0.5961
vt 0.4076 0.5853
vt 0.3840 0.5696
vt 0.3640 0.5496
vt 0.3483 0.5260
vt 0.3375 0.4999
vt 0.3320 0.4722
vt 0.3320 0.4439
vt 0.3375 0.4161
vt 0.3483 0.3900
vt 0.3640 0.3665
vt 0.3840 0.3465
vt 0.4076 0.3307
vt 0.4337 0.3199
vt 0.4614 0.3144
vt 0.4897 0.3144
vt 0.5175 0.3199
vt 0.5436 0.3307
vt 0.5671 0.3465
vt 0.5871 0.3665
vt 0.6029 0.3900
vt 0.6137 0.4161
vt 0.6192 0.4439
vt 0.6192 0.4722
vt 0.6137 0.4999
vt 0.6029 0.5260
vt 0.5871 0.5496
vt 0.5671 0.5696
vt 0.5436 0.5853
vn 0.0000 1.0000 0.0000
usemtl None
s off
f 34/34/2 35/35/2 36/36/2
f 34/34/2 36/36/2 37/37/2
f 34/34/2 37/37/2 38/38/2
f 34/34/2 38/38/2 39/39/2
f 34/34/2 39/39/2 40/40/2
f 34/34/2 40/40/2 41/41/2
f 34/34/2 41/41/2 42/42/2
f 34/34/2 42/42/2 43/43/2
f 34/34/2 43/43/2 44/44/2
f 34/34/2 44/44/2 45/45/2
f 34/34/2 45/45/2 46/46/2
f 34/34/2 46/46/2 47/47/2
f 34/34/2 47/47/2 48/48/2
f 34/34/2 48/48/2 49/49/2
f 34/34/2 49/49/2 50/50/2
f 34/34/2 50/50/2 51/51/2
f 34/34/2 51/51/2 52/52/2
f 34/34/2 52/52/2 53/53/2
f 34/34/2 53/53/2 54/54/2
f 34/34/2 54/54/2 55/55/2
f 34/34/2 55/55/2 56/56/2
f 34/34/2 56/56/2 57/57/2
f 34/34/2 57/57/2 58/58/2
f 34/34/2 58/58/2 59/59/2
f 34/34/2 59/59/2 60/60/2
f 34/34/2 60/60/2 61/61/2
f 34/34/2 61/61/2 62/62/2
f 34/34/2 62/62/2 63/63/2
f 34/34/2 63/63/2 64/64/2
f 34/34/2 64/64/2 65/65/2
f 34/34/2 65/65/2 66/66/2
f 34/34/2 66/66/2 35/35/2
o Plane.001_Plane.004
v 0.571725 -2.054270 -1.187162
v 0.265690 -2.054270 -0.657095
v 0.539050 -1.677541 -1.130568
v 0.265690 -0.687621 -0.657095
vt 0.4307 0.2525
vt 0.5083 0.2391
vt 0.7120 0.1265
vt 0.4307 0.1265
vn 0.8660 0.0000 0.5000
usemtl None
s off
f 67/67/3 69/68/3 70/69/3 68/70/3
o Plane.003_Plane.001
v 0.508724 -2.054270 1.202142
v 0.202690 -2.054270 0.672075
v 0.476050 -1.677541 1.145548
v 0.202690 -0.687621 0.672075
vt 0.4307 0.2525
vt 0.5083 0.2391
vt 0.7120 0.1265
vt 0.4307 0.1265
vn -0.8660 0.0000 0.5000
usemtl None
s off
f 71/71/4 73/72/4 74/73/4 72/74/4
o Plane
v -1.299013 -2.068029 -0.000000
v -0.686944 -2.068029 -0.000000
v -1.233663 -1.691300 -0.000000
v -0.686944 -0.701380 0.000000
vt 0.4307 0.2525
vt 0.5083 0.2391
vt 0.7120 0.1265
vt 0.4307 0.1265
vn 0.0000 0.0000 -1.0000
usemtl None
s off
f 75/75/5 77/76/5 78/77/5 76/78/5
o Cone
v 0.000000 1.896130 -1.000000
v 0.000000 3.896130 0.000000
v 0.195090 1.896130 -0.980785
v 0.382683 1.896130 -0.923880
v 0.555570 1.896130 -0.831470
v 0.707107 1.896130 -0.707107
v 0.831470 1.896130 -0.555570
v 0.923880 1.896130 -0.382683
v 0.980785 1.896130 -0.195090
v 1.000000 1.896130 -0.000000
v 0.980785 1.896130 0.195090
v 0.923880 1.896130 0.382683
v 0.831470 1.896130 0.555570
v 0.707107 1.896130 0.707107
v 0.555570 1.896130 0.831470
v 0.382683 1.896130 0.923880
v 0.195090 1.896130 0.980785
v -0.000000 1.896130 1.000000
v -0.195091 1.896130 0.980785
v -0.382684 1.896130 0.923879
v -0.555571 1.896130 0.831469
v -0.707107 1.896130 0.707106
v -0.831470 1.896130 0.555570
v -0.923880 1.896130 0.382683
v -0.980785 1.896130 0.195089
v -1.000000 1.896130 -0.000001
v -0.980785 1.896130 -0.195091
v -0.923879 1.896130 -0.382684
v -0.831469 1.896130 -0.555571
v -0.707106 1.896130 -0.707108
v -0.555569 1.896130 -0.831470
v -0.382682 1.896130 -0.923880
v -0.195089 1.896130 -0.980786
vt 0.8662 0.7542
vt 0.4082 0.7542
vt 0.8645 0.7140
vt 0.8592 0.6742
vt 0.8505 0.6350
vt 0.8383 0.5968
vt 0.8229 0.5597
vt 0.8043 0.5241
vt 0.7826 0.4903
vt 0.7581 0.4586
vt 0.2958 0.5164
vt 0.0002 0.8662
vt 0.2640 0.4919
vt 0.2302 0.4702
vt 0.1946 0.4516
vt 0.1576 0.4361
vt 0.1193 0.4240
vt 0.0801 0.4153
vt 0.0403 0.4100
vt 0.0002 0.4082
vt 0.7038 0.0002
vt 0.7038 0.4582
vt 0.6637 0.0019
vt 0.6239 0.0072
vt 0.5847 0.0159
vt 0.5465 0.0281
vt 0.5094 0.0435
vt 0.4738 0.0621
vt 0.4400 0.0838
vt 0.4082 0.1084
vt 0.9998 0.1084
vt 0.7042 0.4582
vt 0.9680 0.0838
vt 0.9342 0.0621
vt 0.8987 0.0435
vt 0.8616 0.0281
vt 0.8233 0.0159
vt 0.7841 0.0072
vt 0.7443 0.0019
vt 0.7042 0.0002
vn 0.0000 0.4472 -0.8944
vn 0.0000 1.0000 0.0000
vn 0.1745 0.4472 -0.8772
vn 0.3423 0.4472 -0.8263
vn 0.4969 0.4472 -0.7437
vn 0.6324 0.4472 -0.6324
vn 0.7437 0.4472 -0.4969
vn 0.8263 0.4472 -0.3423
vn 0.8772 0.4472 -0.1745
vn 0.8944 0.4472 0.0000
vn 0.8772 0.4472 0.1745
vn 0.8263 0.4472 0.3423
vn 0.7437 0.4472 0.4969
vn 0.6324 0.4472 0.6324
vn 0.4969 0.4472 0.7437
vn 0.3423 0.4472 0.8263
vn 0.1745 0.4472 0.8772
vn 0.0000 0.4472 0.8944
vn -0.1745 0.4472 0.8772
vn -0.3423 0.4472 0.8263
vn -0.4969 0.4472 0.7437
vn -0.6324 0.4472 0.6324
vn -0.7437 0.4472 0.4969
vn -0.8263 0.4472 0.3423
vn -0.8772 0.4472 0.1745
vn -0.8944 0.4472 0.0000
vn -0.8772 0.4472 -0.1745
vn -0.8263 0.4472 -0.3423
vn -0.7437 0.4472 -0.4969
vn -0.6324 0.4472 -0.6324
vn -0.4969 0.4472 -0.7437
vn -0.3423 0.4472 -0.8263
vn -0.1745 0.4472 -0.8772
usemtl None_HEAD
s 1
f 79/79/6 80/80/7 81/81/8
f 81/81/8 80/80/7 82/82/9
f 82/82/9 80/80/7 83/83/10
f 83/83/10 80/80/7 84/84/11
f 84/84/11 80/80/7 85/85/12
f 85/85/12 80/80/7 86/86/13
f 86/86/13 80/80/7 87/87/14
f 87/87/14 80/80/7 88/88/15
f 88/89/15 80/90/7 89/91/16
f 89/91/16 80/90/7 90/92/17
f 90/92/17 80/90/7 91/93/18
f 91/93/18 80/90/7 92/94/19
f 92/94/19 80/90/7 93/95/20
f 93/95/20 80/90/7 94/96/21
f 94/96/21 80/90/7 95/97/22
f 95/97/22 80/90/7 96/98/23
f 96/99/23 80/100/7 97/101/24
f 97/101/24 80/100/7 98/102/25
f 98/102/25 80/100/7 99/103/26
f 99/103/26 80/100/7 100/104/27
f 100/104/27 80/100/7 101/105/28
f 101/105/28 80/100/7 102/106/29
f 102/106/29 80/100/7 103/107/30
f 103/107/30 80/100/7 104/108/31
f 104/109/31 80/110/7 105/111/32
f 105/111/32 80/110/7 106/112/33
f 106/112/33 80/110/7 107/113/34
f 107/113/34 80/110/7 108/114/35
f 108/114/35 80/110/7 109/115/36
f 109/115/36 80/110/7 110/116/37
f 110/116/37 80/110/7 111/117/38
f 111/117/38 80/110/7 79/118/6
o Cylinder
v 0.000000 -2.238249 -0.712490
v 0.139000 -2.238249 -0.698800
v 0.272658 -2.238249 -0.658255
v 0.395839 -2.238249 -0.592414
v 0.503807 -2.238249 -0.503807
v 0.592414 -2.238249 -0.395838
v 0.658255 -2.238249 -0.272658
v 0.698800 -2.238249 -0.139000
v 0.712490 -2.238249 -0.000000
v 0.698800 -2.238249 0.139000
v 0.658255 -2.238249 0.272658
v 0.592414 -2.238249 0.395838
v 0.503807 -2.238249 0.503807
v 0.395838 -2.238249 0.592414
v 0.272658 -2.238249 0.658255
v 0.139000 -2.238249 0.698800
v -0.000000 -2.238249 0.712490
v -0.139000 -2.238249 0.698800
v -0.272659 -2.238249 0.658255
v -0.395839 -2.238249 0.592414
v -0.503807 -2.238249 0.503807
v -0.592414 -2.238249 0.395838
v -0.658256 -2.238249 0.272658
v -0.698800 -2.238249 0.138999
v -0.712490 -2.238249 -0.000001
v -0.698800 -2.238249 -0.139001
v -0.658255 -2.238249 -0.272659
v -0.592414 -2.238249 -0.395839
v -0.503806 -2.238249 -0.503807
v -0.395838 -2.238249 -0.592415
v -0.272657 -2.238249 -0.658256
v -0.138999 -2.238249 -0.698800
v 0.000000 -2.238249 -0.712490
v 0.139000 -2.238249 -0.698800
v 0.272658 -2.238249 -0.658255
v 0.395839 -2.238249 -0.592414
v 0.503807 -2.238249 -0.503807
v 0.592414 -2.238249 -0.395838
v 0.658255 -2.238249 -0.272658
v 0.698800 -2.238249 -0.139000
v 0.712490 -2.238249 -0.000000
v 0.698800 -2.238249 0.139000
v 0.658255 -2.238249 0.272658
v 0.592414 -2.238249 0.395838
v 0.503807 -2.238249 0.503807
v 0.395838 -2.238249 0.592414
v 0.272658 -2.238249 0.658255
v 0.139000 -2.238249 0.698800
v -0.000000 -2.238249 0.712490
v -0.139000 -2.238249 0.698800
v -0.272659 -2.238249 0.658255
v -0.395839 -2.238249 0.592414
v -0.503807 -2.238249 0.503807
v -0.592414 -2.238249 0.395838
v -0.658256 -2.238249 0.272658
v -0.698800 -2.238249 0.138999
v -0.712490 -2.238249 -0.000001
v -0.698800 -2.238249 -0.139001
v -0.658255 -2.238249 -0.272659
v -0.592414 -2.238249 -0.395839
v -0.503806 -2.238249 -0.503807
v -0.395838 -2.238249 -0.592415
v -0.272657 -2.238249 -0.658256
v -0.138999 -2.238249 -0.698800
v 0.000000 -2.238249 -0.712490
v 0.139000 -2.238249 -0.698800
v 0.139000 2.238249 -0.698800
v 0.000000 2.238249 -0.712490
v 0.272658 -2.238249 -0.658255
v 0.272658 2.238249 -0.658255
v 0.395839 -2.238249 -0.592414
v 0.395839 2.238249 -0.592414
v 0.503807 -2.238249 -0.503807
v 0.503807 2.238249 -0.503807
v 0.592414 -2.238249 -0.395838
v 0.592414 2.238249 -0.395838
v 0.658255 -2.238249 -0.272658
v 0.658255 2.238249 -0.272658
v 0.698800 -2.238249 -0.139000
v 0.698800 2.238249 -0.139000
v 0.712490 -2.238249 -0.000000
v 0.712490 2.238249 -0.000000
v 0.698800 -2.238249 0.139000
v 0.698800 2.238249 0.139000
v 0.658255 -2.238249 0.272658
v 0.658255 2.238249 0.272658
v 0.592414 -2.238249 0.395838
v 0.592414 2.238249 0.395838
v 0.503807 -2.238249 0.503807
v 0.503807 2.238249 0.503807
v 0.395838 -2.238249 0.592414
v 0.395838 2.238249 0.592414
v 0.272658 -2.238249 0.658255
v 0.272658 2.238249 0.658255
v 0.139000 -2.238249 0.698800
v 0.139000 2.238249 0.698800
v -0.000000 -2.238249 0.712490
v -0.000000 2.238249 0.712490
v -0.139000 -2.238249 0.698800
v -0.139000 2.238249 0.698800
v -0.272659 -2.238249 0.658255
v -0.272659 2.238249 0.658255
v -0.395839 -2.238249 0.592414
v -0.395839 2.238249 0.592414
v -0.503807 -2.238249 0.503807
v -0.503807 2.238249 0.503807
v -0.592414 -2.238249 0.395838
v -0.592414 2.238249 0.395838
v -0.658256 -2.238249 0.272658
v -0.658256 2.238249 0.272658
v -0.698800 -2.238249 0.138999
v -0.698800 2.238249 0.138999
v -0.712490 -2.238249 -0.000001
v -0.712490 2.238249 -0.000001
v -0.698800 -2.238249 -0.139001
v -0.698800 2.238249 -0.139001
v -0.658255 -2.238249 -0.272659
v -0.658255 2.238249 -0.272659
v -0.592414 -2.238249 -0.395839
v -0.592414 2.238249 -0.395839
v -0.503806 -2.238249 -0.503807
v -0.503806 2.238249 -0.503807
v -0.395838 -2.238249 -0.592415
v -0.395838 2.238249 -0.592415
v -0.272657 -2.238249 -0.658256
v -0.272657 2.238249 -0.658256
v -0.138999 -2.238249 -0.698800
v -0.138999 2.238249 -0.698800
vt 0.6713 0.2233
vt 0.7175 0.1350
vt 0.7184 0.1354
vt 0.6723 0.2240
vt 0.5677 0.0080
vt 0.5358 0.0013
vt 0.5359 0.0007
vt 0.5679 0.0074
vt 0.3459 0.1874
vt 0.3596 0.1960
vt 0.3594 0.1963
vt 0.3457 0.1876
vt 0.5567 0.2943
vt 0.5876 0.2875
vt 0.5877 0.2881
vt 0.5568 0.2948
vt 0.6756 0.0995
vt 0.6588 0.0764
vt 0.6592 0.0761
vt 0.6759 0.0992
vt 0.4081 0.0453
vt 0.3211 0.1453
vt 0.3202 0.1445
vt 0.4070 0.0442
vt 0.4423 0.2586
vt 0.4671 0.2761
vt 0.4668 0.2765
vt 0.4420 0.2590
vt 0.7116 0.1225
vt 0.7118 0.1223
vt 0.5029 0.0013
vt 0.5029 0.0007
vt 0.3768 0.2056
vt 0.3765 0.2059
vt 0.6166 0.2744
vt 0.6169 0.2749
vt 0.6396 0.0552
vt 0.6399 0.0548
vt 0.3248 0.1632
vt 0.3245 0.1633
vt 0.4952 0.2882
vt 0.4950 0.2887
vt 0.7026 0.1143
vt 0.7027 0.1141
vt 0.4704 0.0082
vt 0.4703 0.0076
vt 0.3970 0.2248
vt 0.3966 0.2252
vt 0.6466 0.2520
vt 0.6471 0.2526
vt 0.6181 0.0362
vt 0.6184 0.0358
vt 0.3340 0.1765
vt 0.3338 0.1767
vt 0.5255 0.2944
vt 0.5254 0.2950
vt 0.6920 0.1085
vt 0.6921 0.1083
vt 0.4398 0.0219
vt 0.4395 0.0213
vt 0.4192 0.2417
vt 0.4189 0.2421
vt 0.5947 0.0197
vt 0.5950 0.0193
vt 0.5568 0.2954
vt 0.5254 0.2955
vt 0.6762 0.0989
vt 0.6922 0.1080
vt 0.4059 0.0432
vt 0.4392 0.0208
vt 0.4417 0.2594
vt 0.4186 0.2425
vt 0.7193 0.1357
vt 0.6734 0.2246
vt 0.5360 0.0001
vt 0.5680 0.0069
vt 0.3593 0.1966
vt 0.3456 0.1878
vt 0.5879 0.2886
vt 0.6596 0.0757
vt 0.3191 0.1437
vt 0.4666 0.2770
vt 0.7120 0.1222
vt 0.5028 0.0001
vt 0.3763 0.2062
vt 0.6172 0.2754
vt 0.6403 0.0545
vt 0.3242 0.1634
vt 0.4949 0.2893
vt 0.7028 0.1140
vt 0.4701 0.0071
vt 0.3963 0.2255
vt 0.6475 0.2530
vt 0.6187 0.0354
vt 0.3336 0.1769
vt 0.5952 0.0189
vt 0.3189 0.2501
vt 0.0001 0.2501
vt 0.0001 0.2188
vt 0.3189 0.2188
vt 0.0001 0.1876
vt 0.3189 0.1876
vt 0.0001 0.1563
vt 0.3189 0.1563
vt 0.0001 0.1251
vt 0.3189 0.1251
vt 0.0001 0.0938
vt 0.3189 0.0938
vt 0.0001 0.0626
vt 0.3189 0.0626
vt 0.0001 0.0314
vt 0.3189 0.0314
vt 0.0001 0.0001
vt 0.3189 0.0001
vt 0.3189 0.9999
vt 0.0001 0.9999
vt 0.0001 0.9686
vt 0.3189 0.9686
vt 0.0001 0.9374
vt 0.3189 0.9374
vt 0.0001 0.9061
vt 0.3189 0.9062
vt 0.0001 0.8749
vt 0.3189 0.8749
vt 0.0001 0.8437
vt 0.3189 0.8437
vt 0.0001 0.8124
vt 0.3189 0.8124
vt 0.0001 0.7812
vt 0.3189 0.7812
vt 0.0001 0.7499
vt 0.3189 0.7499
vt 0.0001 0.7187
vt 0.3189 0.7187
vt 0.0001 0.6875
vt 0.3189 0.6875
vt 0.0001 0.6562
vt 0.3189 0.6562
vt 0.0001 0.6250
vt 0.3189 0.6250
vt 0.0001 0.5937
vt 0.3189 0.5937
vt 0.0001 0.5625
vt 0.3189 0.5625
vt 0.0001 0.5312
vt 0.3189 0.5312
vt 0.0001 0.5000
vt 0.3189 0.5000
vt 0.0001 0.4688
vt 0.3189 0.4688
vt 0.0001 0.4375
vt 0.3189 0.4375
vt 0.0001 0.4063
vt 0.3189 0.4063
vt 0.0001 0.3750
vt 0.3189 0.3750
vt 0.0001 0.3438
vt 0.3189 0.3438
vt 0.0001 0.3125
vt 0.3189 0.3125
vt 0.4933 0.6130
vt 0.4621 0.6130
vt 0.4315 0.6069
vt 0.4026 0.5949
vt 0.3766 0.5776
vt 0.3545 0.5555
vt 0.3372 0.5295
vt 0.3252 0.5006
vt 0.3191 0.4700
vt 0.3191 0.4388
vt 0.3252 0.4081
vt 0.3372 0.3792
vt 0.3545 0.3533
vt 0.3766 0.3312
vt 0.4026 0.3138
vt 0.4315 0.3019
vt 0.4621 0.2958
vt 0.4933 0.2958
vt 0.5240 0.3019
vt 0.5528 0.3138
vt 0.5788 0.3312
vt 0.6009 0.3533
vt 0.6183 0.3792
vt 0.6302 0.4081
vt 0.6363 0.4388
vt 0.6363 0.4700
vt 0.6302 0.5006
vt 0.6183 0.5295
vt 0.6009 0.5555
vt 0.5788 0.5776
vt 0.5528 0.5949
vt 0.5240 0.6069
vt 0.0001 0.2813
vt 0.3189 0.2813
vn 0.0000 0.0000 1.0000
vn 0.2896 0.0000 0.9572
vn 0.1946 0.0000 0.9809
vn 0.9216 0.0000 0.3880
vn 0.8798 0.0000 0.4754
vn -0.8294 0.0000 0.5585
vn -0.8798 0.0000 0.4754
vn -0.0978 0.0000 0.9952
vn -0.1946 0.0000 0.9809
vn 0.7054 0.0000 0.7088
vn 0.6328 0.0000 0.7743
vn -0.9783 0.0000 0.2069
vn -0.9925 0.0000 0.1223
vn -0.4702 0.0000 0.8825
vn -0.5542 0.0000 0.8324
vn 0.3818 0.0000 0.9243
vn 0.9546 0.0000 0.2979
vn -0.7711 0.0000 0.6366
vn 0.7711 0.0000 0.6366
vn -0.9546 0.0000 0.2979
vn -0.3818 0.0000 0.9243
vn 0.4702 0.0000 0.8825
vn 0.9783 0.0000 0.2069
vn -0.7054 0.0000 0.7088
vn 0.0978 0.0000 0.9952
vn 0.8294 0.0000 0.5585
vn -0.9216 0.0000 0.3880
vn -0.2896 0.0000 0.9572
vn 0.5542 0.0000 0.8324
vn 0.9925 0.0000 0.1223
vn -0.6328 0.0000 0.7743
vn 0.0001 0.0000 1.0000
vn 0.0000 0.6857 -0.7279
vn 0.1420 0.6857 -0.7139
vn 0.2785 0.6857 -0.6725
vn 0.4044 0.6857 -0.6052
vn 0.5147 0.6857 -0.5147
vn 0.6052 0.6857 -0.4044
vn 0.6725 0.6857 -0.2785
vn 0.7139 0.6857 -0.1420
vn 0.7279 0.6857 0.0000
vn 0.7139 0.6857 0.1420
vn 0.6725 0.6857 0.2785
vn 0.6052 0.6857 0.4044
vn 0.5147 0.6857 0.5147
vn 0.4044 0.6857 0.6052
vn 0.2785 0.6857 0.6725
vn 0.1420 0.6857 0.7139
vn 0.0000 0.6857 0.7279
vn -0.1420 0.6857 0.7139
vn -0.2785 0.6857 0.6725
vn -0.4044 0.6857 0.6052
vn -0.5147 0.6857 0.5147
vn -0.6052 0.6857 0.4044
vn -0.6725 0.6857 0.2785
vn -0.7139 0.6857 0.1420
vn -0.7279 0.6857 0.0000
vn -0.7139 0.6857 -0.1420
vn -0.6725 0.6857 -0.2785
vn -0.6052 0.6857 -0.4044
vn -0.5147 0.6857 -0.5147
vn -0.4044 0.6857 -0.6052
vn -0.2785 0.6857 -0.6725
vn -0.1420 0.6857 -0.7139
usemtl None
s 1
f 121/119/39 120/120/39 152/121/39 153/122/39
f 143/123/39 142/124/39 174/125/39 175/126/39
f 134/127/39 133/128/39 165/129/39 166/130/39
f 125/131/39 124/132/39 156/133/39 157/134/39
f 116/135/39 115/136/39 147/137/39 148/138/39
f 138/139/39 137/140/39 169/141/39 170/142/39
f 129/143/39 128/144/39 160/145/39 161/146/39
f 120/120/39 119/147/39 151/148/39 152/121/39
f 142/124/39 141/149/39 173/150/39 174/125/39
f 133/128/39 132/151/39 164/152/39 165/129/39
f 124/132/39 123/153/39 155/154/39 156/133/39
f 115/136/39 114/155/39 146/156/39 147/137/39
f 137/140/39 136/157/39 168/158/39 169/141/39
f 128/144/39 127/159/39 159/160/39 160/145/39
f 119/147/39 118/161/39 150/162/39 151/148/39
f 141/149/39 140/163/39 172/164/39 173/150/39
f 132/151/39 131/165/39 163/166/39 164/152/39
f 123/153/39 122/167/39 154/168/39 155/154/39
f 114/155/39 113/169/39 145/170/39 146/156/39
f 136/157/39 135/171/39 167/172/39 168/158/39
f 127/159/39 126/173/39 158/174/39 159/160/39
f 118/161/39 117/175/39 149/176/39 150/162/39
f 140/163/39 139/177/39 171/178/39 172/164/39
f 131/165/39 130/179/39 162/180/39 163/166/39
f 122/167/39 121/119/39 153/122/39 154/168/39
f 112/181/39 143/123/39 175/126/39 144/182/39
f 113/169/39 112/181/39 144/182/39 145/170/39
f 135/171/39 134/127/39 166/130/39 167/172/39
f 126/173/39 125/131/39 157/134/39 158/174/39
f 117/175/39 116/135/39 148/138/39 149/176/39
f 139/177/39 138/139/39 170/142/39 171/178/39
f 130/179/39 129/143/39 161/146/39 162/180/39
f 158/174/39 157/134/39 202/183/40 204/184/41
f 149/176/39 148/138/39 184/185/42 186/186/43
f 171/178/39 170/142/39 228/187/44 230/188/45
f 162/180/39 161/146/39 210/189/46 212/190/47
f 153/122/39 152/121/39 192/191/48 194/192/49
f 175/126/39 174/125/39 236/193/50 238/194/51
f 166/130/39 165/129/39 218/195/52 220/196/53
f 157/134/39 156/133/39 200/197/54 202/183/40
f 148/138/39 147/137/39 182/198/55 184/185/42
f 170/142/39 169/141/39 226/199/56 228/187/44
f 161/146/39 160/145/39 208/200/39 210/189/46
f 152/121/39 151/148/39 190/201/57 192/191/48
f 174/125/39 173/150/39 234/202/58 236/193/50
f 165/129/39 164/152/39 216/203/59 218/195/52
f 156/133/39 155/154/39 198/204/60 200/197/54
f 147/137/39 146/156/39 180/205/61 182/198/55
f 169/141/39 168/158/39 224/206/62 226/199/56
f 160/145/39 159/160/39 206/207/63 208/200/39
f 151/148/39 150/162/39 188/208/64 190/201/57
f 173/150/39 172/164/39 232/209/65 234/202/58
f 164/152/39 163/166/39 214/210/66 216/203/59
f 155/154/39 154/168/39 196/211/67 198/204/60
f 146/156/39 145/170/39 177/212/68 180/205/61
f 168/158/39 167/172/39 222/213/69 224/206/62
f 159/160/39 158/174/39 204/184/41 206/207/63
f 150/162/39 149/176/39 186/186/43 188/208/64
f 172/164/39 171/178/39 230/188/45 232/209/65
f 163/166/39 162/180/39 212/190/47 214/210/66
f 154/168/39 153/122/39 194/192/49 196/211/67
f 144/182/39 175/126/39 238/194/51 176/214/70
f 145/170/39 144/182/39 176/214/70 177/212/68
f 167/172/39 166/130/39 220/196/53 222/213/69
f 176/215/70 179/216/71 178/217/72 177/218/68
f 177/218/68 178/217/72 181/219/73 180/220/61
f 180/220/61 181/219/73 183/221/74 182/222/55
f 182/222/55 183/221/74 185/223/75 184/224/42
f 184/224/42 185/223/75 187/225/76 186/226/43
f 186/226/43 187/225/76 189/227/77 188/228/64
f 188/228/64 189/227/77 191/229/78 190/230/57
f 190/230/57 191/229/78 193/231/79 192/232/48
f 192/233/48 193/234/79 195/235/80 194/236/49
f 194/236/49 195/235/80 197/237/81 196/238/67
f 196/238/67 197/237/81 199/239/82 198/240/60
f 198/240/60 199/239/82 201/241/83 200/242/54
f 200/242/54 201/241/83 203/243/84 202/244/40
f 202/244/40 203/243/84 205/245/85 204/246/41
f 204/246/41 205/245/85 207/247/86 206/248/63
f 206/248/63 207/247/86 209/249/87 208/250/39
f 208/250/39 209/249/87 211/251/88 210/252/46
f 210/252/46 211/251/88 213/253/89 212/254/47
f 212/254/47 213/253/89 215/255/90 214/256/66
f 214/256/66 215/255/90 217/257/91 216/258/59
f 216/258/59 217/257/91 219/259/92 218/260/52
f 218/260/52 219/259/92 221/261/93 220/262/53
f 220/262/53 221/261/93 223/263/94 222/264/69
f 222/264/69 223/263/94 225/265/95 224/266/62
f 224/266/62 225/265/95 227/267/96 226/268/56
f 226/268/56 227/267/96 229/269/97 228/270/44
f 228/270/44 229/269/97 231/271/98 230/272/45
f 230/272/45 231/271/98 233/273/99 232/274/65
f 232/274/65 233/273/99 235/275/100 234/276/58
f 234/276/58 235/275/100 237/277/101 236/278/50
f 178/279/72 179/280/71 239/281/102 237/282/101 235/283/100 233/284/99 231/285/98 229/286/97 227/287/96 225/288/95 223/289/94 221/290/93 219/291/92 217/292/91 215/293/90 213/294/89 211/295/88 209/296/87 207/297/86 205/298/85 203/299/84 201/300/83 199/301/82 197/302/81 195/303/80 193/304/79 191/305/78 189/306/77 187/307/76 185/308/75 183/309/74 181/310/73
f 236/278/50 237/277/101 239/311/102 238/312/51
f 238/312/51 239/311/102 179/216/71 176/215/70
