# Blender v2.77 (sub 0) OBJ File: 'firework.blend'
# www.blender.org
mtllib firework.mtl
o Plane.002_Plane.003
v 0.571726 -2.054270 -1.187166
v 0.265692 -2.054270 -0.657099
v 0.539052 -1.677541 -1.130572
v 0.265692 -0.687621 -0.657099
vn -0.8660 0.0000 -0.5000
usemtl None
s off
f 1//1 2//1 4//1 3//1
o Plane.001_Plane.002
v 0.508724 -2.054270 1.202140
v 0.202690 -2.054270 0.672072
v 0.476049 -1.677541 1.145545
v 0.202690 -0.687621 0.672072
vn 0.8660 -0.0000 -0.5000
usemtl None
s off
f 5//2 6//2 8//2 7//2
o Plane
v -1.299013 -2.068029 -0.000000
v -0.686944 -2.068029 -0.000000
v -1.233663 -1.691300 -0.000000
v -0.686944 -0.701380 0.000000
vn -0.0000 -0.0000 1.0000
usemtl None
s off
f 9//3 10//3 12//3 11//3
o Cone
v 0.000000 1.896130 -1.000000
v 0.000000 3.896130 0.000000
v 0.195090 1.896130 -0.980785
v 0.382683 1.896130 -0.923880
v 0.555570 1.896130 -0.831470
v 0.707107 1.896130 -0.707107
v 0.831470 1.896130 -0.555570
v 0.923880 1.896130 -0.382683
v 0.980785 1.896130 -0.195090
v 1.000000 1.896130 -0.000000
v 0.980785 1.896130 0.195090
v 0.923880 1.896130 0.382683
v 0.831470 1.896130 0.555570
v 0.707107 1.896130 0.707107
v 0.555570 1.896130 0.831470
v 0.382683 1.896130 0.923880
v 0.195090 1.896130 0.980785
v -0.000000 1.896130 1.000000
v -0.195091 1.896130 0.980785
v -0.382684 1.896130 0.923879
v -0.555571 1.896130 0.831469
v -0.707107 1.896130 0.707106
v -0.831470 1.896130 0.555570
v -0.923880 1.896130 0.382683
v -0.980785 1.896130 0.195089
v -1.000000 1.896130 -0.000001
v -0.980785 1.896130 -0.195091
v -0.923879 1.896130 -0.382684
v -0.831469 1.896130 -0.555571
v -0.707106 1.896130 -0.707108
v -0.555569 1.896130 -0.831470
v -0.382682 1.896130 -0.923880
v -0.195089 1.896130 -0.980786
vn 0.0878 0.4455 -0.8910
vn 0.2599 0.4455 -0.8567
vn 0.4220 0.4455 -0.7896
vn 0.5680 0.4455 -0.6921
vn 0.6921 0.4455 -0.5680
vn 0.7896 0.4455 -0.4220
vn 0.8567 0.4455 -0.2599
vn 0.8910 0.4455 -0.0878
vn 0.8910 0.4455 0.0878
vn 0.8567 0.4455 0.2599
vn 0.7896 0.4455 0.4220
vn 0.6921 0.4455 0.5680
vn 0.5680 0.4455 0.6921
vn 0.4220 0.4455 0.7896
vn 0.2599 0.4455 0.8567
vn 0.0878 0.4455 0.8910
vn -0.0878 0.4455 0.8910
vn -0.2599 0.4455 0.8567
vn -0.4220 0.4455 0.7896
vn -0.5680 0.4455 0.6921
vn -0.6921 0.4455 0.5680
vn -0.7896 0.4455 0.4220
vn -0.8567 0.4455 0.2599
vn -0.8910 0.4455 0.0878
vn -0.8910 0.4455 -0.0878
vn -0.8567 0.4455 -0.2599
vn -0.7896 0.4455 -0.4220
vn -0.6921 0.4455 -0.5680
vn -0.5680 0.4455 -0.6921
vn -0.4220 0.4455 -0.7896
vn -0.2599 0.4455 -0.8567
vn -0.0878 0.4455 -0.8910
vn 0.0000 -1.0000 0.0000
usemtl None
s off
f 13//4 14//4 15//4
f 15//5 14//5 16//5
f 16//6 14//6 17//6
f 17//7 14//7 18//7
f 18//8 14//8 19//8
f 19//9 14//9 20//9
f 20//10 14//10 21//10
f 21//11 14//11 22//11
f 22//12 14//12 23//12
f 23//13 14//13 24//13
f 24//14 14//14 25//14
f 25//15 14//15 26//15
f 26//16 14//16 27//16
f 27//17 14//17 28//17
f 28//18 14//18 29//18
f 29//19 14//19 30//19
f 30//20 14//20 31//20
f 31//21 14//21 32//21
f 32//22 14//22 33//22
f 33//23 14//23 34//23
f 34//24 14//24 35//24
f 35//25 14//25 36//25
f 36//26 14//26 37//26
f 37//27 14//27 38//27
f 38//28 14//28 39//28
f 39//29 14//29 40//29
f 40//30 14//30 41//30
f 41//31 14//31 42//31
f 42//32 14//32 43//32
f 43//33 14//33 44//33
f 44//34 14//34 45//34
f 45//35 14//35 13//35
f 13//36 15//36 16//36 17//36 18//36 19//36 20//36 21//36 22//36 23//36 24//36 25//36 26//36 27//36 28//36 29//36 30//36 31//36 32//36 33//36 34//36 35//36 36//36 37//36 38//36 39//36 40//36 41//36 42//36 43//36 44//36 45//36
o Cylinder
v 0.000000 -2.238249 -0.712490
v 0.139000 -2.238249 -0.698800
v 0.272658 -2.238249 -0.658255
v 0.395839 -2.238249 -0.592414
v 0.503807 -2.238249 -0.503807
v 0.592414 -2.238249 -0.395838
v 0.658255 -2.238249 -0.272658
v 0.698800 -2.238249 -0.139000
v 0.712490 -2.238249 -0.000000
v 0.698800 -2.238249 0.139000
v 0.658255 -2.238249 0.272658
v 0.592414 -2.238249 0.395838
v 0.503807 -2.238249 0.503807
v 0.395838 -2.238249 0.592414
v 0.272658 -2.238249 0.658255
v 0.139000 -2.238249 0.698800
v -0.000000 -2.238249 0.712490
v -0.139000 -2.238249 0.698800
v -0.272659 -2.238249 0.658255
v -0.395839 -2.238249 0.592414
v -0.503807 -2.238249 0.503807
v -0.592414 -2.238249 0.395838
v -0.658256 -2.238249 0.272658
v -0.698800 -2.238249 0.138999
v -0.712490 -2.238249 -0.000001
v -0.698800 -2.238249 -0.139001
v -0.658255 -2.238249 -0.272659
v -0.592414 -2.238249 -0.395839
v -0.503806 -2.238249 -0.503807
v -0.395838 -2.238249 -0.592415
v -0.272657 -2.238249 -0.658256
v -0.138999 -2.238249 -0.698800
v 0.000000 -2.238249 -0.712490
v 0.139000 -2.238249 -0.698800
v 0.139000 2.238249 -0.698800
v 0.000000 2.238249 -0.712490
v 0.272658 -2.238249 -0.658255
v 0.272658 2.238249 -0.658255
v 0.395839 -2.238249 -0.592414
v 0.395839 2.238249 -0.592414
v 0.503807 -2.238249 -0.503807
v 0.503807 2.238249 -0.503807
v 0.592414 -2.238249 -0.395838
v 0.592414 2.238249 -0.395838
v 0.658255 -2.238249 -0.272658
v 0.658255 2.238249 -0.272658
v 0.698800 -2.238249 -0.139000
v 0.698800 2.238249 -0.139000
v 0.712490 -2.238249 -0.000000
v 0.712490 2.238249 -0.000000
v 0.698800 -2.238249 0.139000
v 0.698800 2.238249 0.139000
v 0.658255 -2.238249 0.272658
v 0.658255 2.238249 0.272658
v 0.592414 -2.238249 0.395838
v 0.592414 2.238249 0.395838
v 0.503807 -2.238249 0.503807
v 0.503807 2.238249 0.503807
v 0.395838 -2.238249 0.592414
v 0.395838 2.238249 0.592414
v 0.272658 -2.238249 0.658255
v 0.272658 2.238249 0.658255
v 0.139000 -2.238249 0.698800
v 0.139000 2.238249 0.698800
v -0.000000 -2.238249 0.712490
v -0.000000 2.238249 0.712490
v -0.139000 -2.238249 0.698800
v -0.139000 2.238249 0.698800
v -0.272659 -2.238249 0.658255
v -0.272659 2.238249 0.658255
v -0.395839 -2.238249 0.592414
v -0.395839 2.238249 0.592414
v -0.503807 -2.238249 0.503807
v -0.503807 2.238249 0.503807
v -0.592414 -2.238249 0.395838
v -0.592414 2.238249 0.395838
v -0.658256 -2.238249 0.272658
v -0.658256 2.238249 0.272658
v -0.698800 -2.238249 0.138999
v -0.698800 2.238249 0.138999
v -0.712490 -2.238249 -0.000001
v -0.712490 2.238249 -0.000001
v -0.698800 -2.238249 -0.139001
v -0.698800 2.238249 -0.139001
v -0.658255 -2.238249 -0.272659
v -0.658255 2.238249 -0.272659
v -0.592414 -2.238249 -0.395839
v -0.592414 2.238249 -0.395839
v -0.503806 -2.238249 -0.503807
v -0.503806 2.238249 -0.503807
v -0.395838 -2.238249 -0.592415
v -0.395838 2.238249 -0.592415
v -0.272657 -2.238249 -0.658256
v -0.272657 2.238249 -0.658256
v -0.138999 -2.238249 -0.698800
v -0.138999 2.238249 -0.698800
vn 0.0000 0.0000 1.0000
vn 0.0000 -1.0000 0.0000
vn 0.0980 0.0000 -0.9952
vn 0.2903 0.0000 -0.9569
vn 0.4714 0.0000 -0.8819
vn 0.6344 0.0000 -0.7730
vn 0.7730 0.0000 -0.6344
vn 0.8819 0.0000 -0.4714
vn 0.9569 0.0000 -0.2903
vn 0.9952 0.0000 -0.0980
vn 0.9952 0.0000 0.0980
vn 0.9569 0.0000 0.2903
vn 0.8819 0.0000 0.4714
vn 0.7730 0.0000 0.6344
vn 0.6344 0.0000 0.7730
vn 0.4714 0.0000 0.8819
vn 0.2903 0.0000 0.9569
vn 0.0980 0.0000 0.9952
vn -0.0980 0.0000 0.9952
vn -0.2903 0.0000 0.9569
vn -0.4714 0.0000 0.8819
vn -0.6344 0.0000 0.7730
vn -0.7730 0.0000 0.6344
vn -0.8819 0.0000 0.4714
vn -0.9569 0.0000 0.2903
vn -0.9952 0.0000 0.0980
vn -0.9952 0.0000 -0.0980
vn -0.9569 0.0000 -0.2903
vn -0.8819 0.0000 -0.4714
vn -0.7730 0.0000 -0.6344
vn -0.6344 0.0000 -0.7730
vn -0.4714 0.0000 -0.8819
vn 0.0000 1.0000 0.0000
vn -0.2903 0.0000 -0.9569
vn -0.0980 0.0000 -0.9952
usemtl None
s off
f 55//37 54//37 94//37 96//37
f 77//37 76//37 138//37 140//37
f 68//37 67//37 120//37 122//37
f 59//37 58//37 102//37 104//37
f 50//37 49//37 84//37 86//37
f 72//37 71//37 128//37 130//37
f 63//37 62//37 110//37 112//37
f 54//37 53//37 92//37 94//37
f 76//37 75//37 136//37 138//37
f 67//37 66//37 118//37 120//37
f 58//37 57//37 100//37 102//37
f 49//37 48//37 82//37 84//37
f 71//37 70//37 126//37 128//37
f 62//37 61//37 108//37 110//37
f 53//37 52//37 90//37 92//37
f 75//37 74//37 134//37 136//37
f 66//37 65//37 116//37 118//37
f 57//37 56//37 98//37 100//37
f 48//37 47//37 79//37 82//37
f 70//37 69//37 124//37 126//37
f 61//37 60//37 106//37 108//37
f 52//37 51//37 88//37 90//37
f 74//37 73//37 132//37 134//37
f 65//37 64//37 114//37 116//37
f 56//37 55//37 96//37 98//37
f 46//37 77//37 140//37 78//37
f 47//37 46//37 78//37 79//37
f 69//37 68//37 122//37 124//37
f 60//37 59//37 104//37 106//37
f 51//37 50//37 86//37 88//37
f 73//37 72//37 130//37 132//37
f 64//37 63//37 112//37 114//37
f 46//38 47//38 48//38 49//38 50//38 51//38 52//38 53//38 54//38 55//38 56//38 57//38 58//38 59//38 60//38 61//38 62//38 63//38 64//38 65//38 66//38 67//38 68//38 69//38 70//38 71//38 72//38 73//38 74//38 75//38 76//38 77//38
f 78//39 81//39 80//39 79//39
f 79//40 80//40 83//40 82//40
f 82//41 83//41 85//41 84//41
f 84//42 85//42 87//42 86//42
f 86//43 87//43 89//43 88//43
f 88//44 89//44 91//44 90//44
f 90//45 91//45 93//45 92//45
f 92//46 93//46 95//46 94//46
f 94//47 95//47 97//47 96//47
f 96//48 97//48 99//48 98//48
f 98//49 99//49 101//49 100//49
f 100//50 101//50 103//50 102//50
f 102//51 103//51 105//51 104//51
f 104//52 105//52 107//52 106//52
f 106//53 107//53 109//53 108//53
f 108//54 109//54 111//54 110//54
f 110//55 111//55 113//55 112//55
f 112//56 113//56 115//56 114//56
f 114//57 115//57 117//57 116//57
f 116//58 117//58 119//58 118//58
f 118//59 119//59 121//59 120//59
f 120//60 121//60 123//60 122//60
f 122//61 123//61 125//61 124//61
f 124//62 125//62 127//62 126//62
f 126//63 127//63 129//63 128//63
f 128//64 129//64 131//64 130//64
f 130//65 131//65 133//65 132//65
f 132//66 133//66 135//66 134//66
f 134//67 135//67 137//67 136//67
f 136//68 137//68 139//68 138//68
f 80//69 81//69 141//69 139//69 137//69 135//69 133//69 131//69 129//69 127//69 125//69 123//69 121//69 119//69 117//69 115//69 113//69 111//69 109//69 107//69 105//69 103//69 101//69 99//69 97//69 95//69 93//69 91//69 89//69 87//69 85//69 83//69
f 138//70 139//70 141//70 140//70
f 140//71 141//71 81//71 78//71
